<svg width="78" height="78" viewBox="0 0 78 78" fill="none" xmlns="http://www.w3.org/2000/svg">
<path d="M30.2575 56.1925C29.9562 55.8918 29.7171 55.5347 29.554 55.1415C29.391 54.7484 29.307 54.3269 29.307 53.9012C29.307 53.4756 29.391 53.0541 29.554 52.661C29.7171 52.2678 29.9562 51.9107 30.2575 51.61L42.8674 39L30.2575 26.39C29.6498 25.7823 29.3084 24.9581 29.3084 24.0987C29.3084 23.2394 29.6498 22.4152 30.2575 21.8075C30.8651 21.1998 31.6893 20.8584 32.5487 20.8584C33.4081 20.8584 34.2323 21.1998 34.84 21.8075L49.7575 36.725C50.0587 37.0257 50.2978 37.3828 50.4609 37.776C50.6239 38.1691 50.7079 38.5906 50.7079 39.0162C50.7079 39.4419 50.6239 39.8634 50.4609 40.2565C50.2978 40.6497 50.0587 41.0068 49.7575 41.3075L34.84 56.225C33.605 57.46 31.525 57.46 30.2575 56.1925Z" fill="white"/>
</svg>
