<svg width="78" height="78" viewBox="0 0 78 78" fill="none" xmlns="http://www.w3.org/2000/svg">
<path d="M47.7425 56.1925C48.0438 55.8918 48.2829 55.5347 48.446 55.1415C48.609 54.7484 48.693 54.3269 48.693 53.9012C48.693 53.4756 48.609 53.0541 48.446 52.661C48.2829 52.2678 48.0438 51.9107 47.7425 51.61L35.1326 39L47.7425 26.39C48.3502 25.7823 48.6916 24.9581 48.6916 24.0987C48.6916 23.2394 48.3502 22.4152 47.7425 21.8075C47.1349 21.1998 46.3107 20.8584 45.4513 20.8584C44.5919 20.8584 43.7677 21.1998 43.16 21.8075L28.2425 36.725C27.9413 37.0257 27.7022 37.3828 27.5391 37.776C27.3761 38.1691 27.2921 38.5906 27.2921 39.0162C27.2921 39.4419 27.3761 39.8634 27.5391 40.2565C27.7022 40.6497 27.9413 41.0068 28.2425 41.3075L43.16 56.225C44.395 57.46 46.475 57.46 47.7425 56.1925Z" fill="white"/>
</svg>
